#!OML:ASF I:\Actors\actors\Patient Classification 1\Patient 1\Session 1\Subject1.ASF
:FULLY-SPECIFIED
:DEGREES
589
root 0.78407 17.4696 9.42903 9.12673 5.44073 -7.85223
lowerback -2.25585 0.950388 6.22329
upperback -11.5347 1.78527 2.42978
thorax -10.999 0.441179 -0.97625
lowerneck -6.21314 0.502335 1.82269
upperneck 27.6181 -0.648047 4.22738
head 9.75873 0.37291 1.10442
rclavicle -1.23868e-014 -2.127e-014
rhumerus -49.6166 -23.1944 -63.9835
rradius 26.9892
rwrist 42.2073
rhand 5.45384 -31.717
rfingers 7.12502
rthumb 30.8028 -59.1559
lclavicle -1.23868e-014 -2.127e-014
lhumerus 22.8179 -13.7837 57.6507
lradius 143.149
lwrist 51.5739
lhand 0.131801 -8.58893
lfingers 7.12502
lthumb 25.7166 19.6936
rfemur -2.46677 23.3187 25.3375
rtibia 2.44806
rfoot -15.5335 -30.744
rtoes 9.10976
lfemur 3.68583 -46.5201 -12.3592
ltibia -4.94879
lfoot -15.9296 49.5822
ltoes 5.10951
590
root 0.801157 17.4701 9.42781 9.26897 4.67502 -7.92926
lowerback -2.42685 0.814564 6.0982
upperback -11.3638 1.58013 2.60975
thorax -10.7157 0.370315 -0.698798
lowerneck -7.64769 -0.524984 -0.476408
upperneck 27.9897 -2.24273 5.87906
head 10.2331 -0.407277 1.92899
rclavicle -1.54182e-014 5.53118e-014
rhumerus -48.9794 -22.9107 -64.4313
rradius 27.1451
rwrist 41.8258
rhand 5.39726 -31.6304
rfingers 7.12502
rthumb 30.7488 -59.0794
lclavicle -1.54182e-014 5.53118e-014
lhumerus 22.9525 -14.1189 58.0775
lradius 142.999
lwrist 50.8082
lhand 0.176395 -8.85072
lfingers 7.12502
lthumb 25.7593 19.4257
rfemur -2.73591 23.5089 25.2111
rtibia 2.51025
rfoot -15.202 -30.3079
rtoes 8.33619
lfemur 3.90047 -46.6039 -12.5415
ltibia -4.96368
lfoot -16.6374 50.2304
ltoes 5.94214
591
root 0.819104 17.4708 9.4266 9.42265 3.91161 -8.03465
lowerback -3.00216 0.569233 5.80492
upperback -10.887 1.18073 2.9692
thorax -9.85281 0.243625 -0.129378
lowerneck -8.18135 -0.641694 -0.610284
upperneck 27.498 -2.19954 5.21262
head 10.1465 -0.483297 1.70932
rclavicle 2.6339e-015 1.28216e-014
rhumerus -47.6329 -22.4726 -65.1996
rradius 27.2543
rwrist 41.3619
rhand 5.31053 -31.5232
rfingers 7.12502
rthumb 30.6661 -58.9878
lclavicle 2.6339e-015 1.28216e-014
lhumerus 23.2896 -13.6689 58.3608
lradius 142.932
lwrist 50.1975
lhand 0.141693 -9.09762
lfingers 7.12502
lthumb 25.7261 19.1836
rfemur -3.03656 23.6467 25.0996
rtibia 2.58922
rfoot -14.833 -29.8152
rtoes 7.45402
lfemur 4.03224 -46.6075 -12.6458
ltibia -4.92484
lfoot -17.5041 50.7722
ltoes 6.89674
592
root 0.837935 17.4721 9.42459 9.57295 3.10053 -8.03768
lowerback -2.91974 0.454163 5.73819
upperback -10.8805 1.02804 3.00915
thorax -9.90169 0.173164 -0.0414772
lowerneck -8.11901 -0.850207 -0.625441
upperneck 27.0458 -2.37194 4.79634
head 9.96966 -0.624581 1.53779
rclavicle 1.46852e-014 -1.15295e-014
rhumerus -47.4711 -22.148 -65.6435
rradius 27.5859
rwrist 40.8928
rhand 5.29029 -31.436
rfingers 7.12502
rthumb 30.6468 -58.9041
lclavicle 1.46852e-014 -1.15295e-014
lhumerus 23.2639 -13.9 58.702
lradius 142.938
lwrist 49.7691
lhand 0.215265 -9.1408
lfingers 7.12502
lthumb 25.7965 19.1302
rfemur -3.36765 23.7444 24.8528
rtibia 2.72231
rfoot -14.5048 -29.2405
rtoes 6.65146
lfemur 4.24286 -46.7185 -12.9512
ltibia -4.88464
lfoot -18.7554 51.4095
ltoes 8.32617
593
root 0.857986 17.473 9.42272 9.67703 2.2616 -8.04491
lowerback -2.79945 0.375576 5.68405
upperback -10.8761 0.927812 3.04261
thorax -9.97285 0.126776 0.0299555
lowerneck -8.01324 -1.06457 -0.657297
upperneck 26.6729 -2.55982 4.40362
head 9.81473 -0.770152 1.37954
rclavicle 1.26477e-014 -1.27222e-014
rhumerus -47.3599 -21.9578 -65.9236
rradius 27.9729
rwrist 40.014
rhand 5.65977 -31.746
rfingers 7.12502
rthumb 30.9991 -59.1476
lclavicle 1.26477e-014 -1.27222e-014
lhumerus 23.326 -14.2846 59.1696
lradius 142.872
lwrist 49.352
lhand 0.183495 -9.20422
lfingers 7.12502
lthumb 25.7661 19.0712
rfemur -3.64213 23.7996 24.6261
rtibia 2.84208
rfoot -14.1757 -28.5918
rtoes 5.89812
lfemur 4.604 -46.8733 -13.3669
ltibia -4.90219
lfoot -20.088 52.1196
ltoes 9.74565
594
root 0.878392 17.4742 9.42073 9.76328 1.43309 -8.04688
lowerback -2.6605 0.27133 5.59452
upperback -10.8898 0.796265 3.10027
thorax -10.0773 0.0687738 0.149622
lowerneck -7.84154 -1.23899 -0.686274
upperneck 26.3301 -2.6902 3.99824
head 9.65629 -0.889474 1.22537
rclavicle -2.23633e-014 1.74931e-014
rhumerus -47.242 -21.525 -66.2981
rradius 28.4713
rwrist 38.5195
rhand 6.27919 -32.5308
rfingers 7.12502
rthumb 31.5893 -59.8183
lclavicle -2.23633e-014 1.74931e-014
lhumerus 23.2868 -14.6581 59.6185
lradius 142.814
lwrist 48.9822
lhand 0.110181 -9.49551
lfingers 7.12502
lthumb 25.6959 18.79
rfemur -3.87745 23.896 24.4071
rtibia 2.92066
rfoot -13.818 -28.0039
rtoes 5.05743
lfemur 5.01383 -47.1054 -13.8402
ltibia -4.91759
lfoot -21.4744 52.8763
ltoes 11.1772
